<?xml version="1.0" encoding="utf-8"?>
<!-- Generator: Adobe Illustrator 27.0.0, SVG Export Plug-In . SVG Version: 6.00 Build 0)  -->
<svg version="1.1" xmlns="http://www.w3.org/2000/svg" xmlns:xlink="http://www.w3.org/1999/xlink" x="0px" y="0px"
	 viewBox="0 0 500 407.36" style="enable-background:new 0 0 500 407.36;" xml:space="preserve">
<style type="text/css">
	.st0{display:none;}
	.st1{display:inline;fill:#FFFFFF;}
	.st2{display:inline;fill:none;}
	.st3{display:inline;fill:#F5F5FF;}
	.st4{fill:#7B70EE;}
	.st5{fill:#D5CBFB;}
	.st6{fill:#1C1C84;}
	.st7{fill:#2525AD;}
	.st8{fill:#F0C64B;}
	.st9{fill:#D8A32B;}
	.st10{fill:#0C0C5B;}
	.st11{fill:#FFF6DC;}
	.st12{fill:#FFFFFF;}
	.st13{fill:#F4E7BD;}
	.st14{fill:#F5F5FF;}
	.st15{fill:none;stroke:#7B70EE;stroke-width:2.1457;stroke-miterlimit:10;}
	.st16{fill:none;stroke:#2525AD;stroke-width:1.9001;stroke-miterlimit:10;}
</style>
<g id="Background" class="st0">
	<rect id="XMLID_1_" y="-43.36" class="st1" width="500" height="500"/>
	<rect y="-43.36" class="st2" width="500" height="500"/>
</g>
<g id="Objects">
	<g>
		<g>
			<g class="st0">
				<path class="st3" d="M43.03,210.6c20.29,22.97,45.98,31.9,58.65,59.82c8.68,19.14,4.61,41.79,11.03,61.8
					c8.79,27.43,37.69,45.85,66.49,45.95c28.8,0.1,56.25-16.22,73.34-39.4c5.6-7.6,10.46-16.15,18.32-21.39
					c11.25-7.51,25.85-6.54,39.32-7.74c33.22-2.96,64.7-21.61,83.25-49.33c0,0,48.12-56.78,14.06-138.01
					c-9.9-23.61-25.95-45.29-48.09-58.16c-22.13-12.87-60.65-13.17-83.44-1.51c-24.23,12.4-40.34,39.59-66.9,45.56
					c-15.39,3.46-31.29-1.04-46.79-3.98c-21.75-4.13-43.91-6.69-65.87-3.9c-25.84,3.28-51.91,16.24-63.97,45.37
					c-4.22,10.2-5.64,21.4-3.96,32.31C29.99,187.77,33.81,200.17,43.03,210.6z"/>
			</g>
			<g class="st0">
				<path class="st3" d="M242.73,42.83c-5.59-7.01-14.29-10.84-22.99-13c-12.01-2.98-24.92-3.2-36.57,0.96
					c-11.65,4.17-21.86,13.05-26.16,24.65c-4.3,11.6-1.93,25.79,6.98,34.37c4.99,4.81,12.01,7.39,18.9,7.38
					c4.09,0.44,8.27-0.02,12.11-1.5c8.55-3.29,14.83-10.77,23.04-14.86c8.91-4.44,20.37-5.15,26.4-13.08
					C249.87,60.61,248.32,49.85,242.73,42.83z"/>
			</g>
			<g class="st0">
				<path class="st3" d="M82.07,291.36c-0.93-1.91-1.8-3.84-2.36-5.88c-1.81-6.54-0.5-14-4.01-19.81
					c-4.41-7.29-15.27-8.62-22.66-4.38c-7.39,4.25-11.62,12.55-13.42,20.88c-1.11,5.13-1.43,10.59,0.32,15.54
					c2.04,5.75,6.69,10.22,11.76,13.62c5.64,3.78,12.22,6.55,19,6.32c3.02-0.1,6.06-0.9,8.75-2.31c2.12-0.92,4-2.34,5.29-4.19
					c0.94-1.11,1.73-2.35,2.31-3.71C89.47,301.79,87.3,294.32,82.07,291.36z"/>
			</g>
		</g>
		<g>
			<g>
				<path class="st4" d="M349.29,290.88H137.55c-1.99,0-3.61-1.63-3.61-3.61V151.4c0-1.99,1.63-3.61,3.61-3.61h211.74
					c1.99,0,3.61,1.63,3.61,3.61v135.86C352.91,289.25,351.28,290.88,349.29,290.88z"/>
				<rect x="139.36" y="158.2" class="st5" width="208.13" height="118.81"/>
				<path class="st5" d="M244.73,152.57c0,0.72-0.59,1.31-1.31,1.31c-0.72,0-1.31-0.59-1.31-1.31c0-0.72,0.59-1.31,1.31-1.31
					C244.15,151.26,244.73,151.85,244.73,152.57z"/>
				<g>
					<path class="st5" d="M382.38,337.57l-26.9-42.81c-1.52-2.42-4.17-3.88-7.02-3.88H238.74h-6.07h-94.28
						c-2.85,0-5.51,1.47-7.02,3.88l-26.9,42.81c-0.76,1.21-1.03,2.65-0.79,4.04h279.49C383.41,340.22,383.14,338.78,382.38,337.57z"
						/>
					<path class="st4" d="M103.68,341.61c0.05,0.29,0.11,0.57,0.21,0.85l0.42,1.27c0.79,2.36,2.99,3.95,5.48,3.95h122.88h6.07
						h138.33c2.48,0,4.69-1.59,5.48-3.95l0.42-1.27c0.09-0.28,0.16-0.57,0.21-0.85H103.68z"/>
				</g>
				<g>
					<polygon class="st4" points="148.51,312 149.82,309.12 143.34,309.12 141.95,312 					"/>
					<polygon class="st4" points="159.93,303.8 160.57,302.3 161.16,300.92 154.89,300.92 153.58,303.8 					"/>
					<polygon class="st4" points="151.16,309.12 149.85,312 156.42,312 157.65,309.12 					"/>
					<polygon class="st4" points="150.38,307.9 151.69,305.02 145.32,305.02 143.93,307.9 					"/>
					<polygon class="st4" points="282.33,300.92 283.06,303.8 288.63,303.8 287.83,300.92 					"/>
					<polygon class="st4" points="182.34,309.12 181.45,312 188.08,312 188.92,309.12 					"/>
					<polygon class="st4" points="174.59,309.12 173.55,312 180.18,312 181.06,309.12 					"/>
					<polygon class="st4" points="166.8,309.12 165.65,312 172.25,312 173.29,309.12 					"/>
					<polygon class="st4" points="158.98,309.12 157.75,312 164.33,312 165.49,309.12 					"/>
					<polygon class="st4" points="289.09,300.92 289.89,303.8 295.1,303.8 294.26,300.92 					"/>
					<polygon class="st4" points="204.74,305.02 204.02,307.9 209.26,307.9 209.91,305.02 					"/>
					<polygon class="st4" points="261.6,300.92 262.09,303.8 268.13,303.8 267.56,300.92 					"/>
					<polygon class="st4" points="203.79,303.8 204.52,300.92 199.02,300.92 198.22,303.8 					"/>
					<polygon class="st4" points="196.95,303.8 197.76,300.92 192.59,300.92 191.75,303.8 					"/>
					<polygon class="st4" points="210.18,303.8 210.83,300.92 205.78,300.92 205.05,303.8 					"/>
					<polygon class="st4" points="295.53,300.92 296.37,303.8 302.89,303.8 302,300.92 					"/>
					<polygon class="st4" points="177.54,300.92 176.5,303.8 182.69,303.8 183.14,302.31 183.57,300.92 					"/>
					<polygon class="st4" points="175.2,303.8 176.24,300.92 170.09,300.92 168.93,303.8 					"/>
					<polygon class="st4" points="162.49,300.92 161.25,303.8 167.62,303.8 168.22,302.3 168.77,300.92 					"/>
					<polygon class="st4" points="276.02,300.92 276.67,303.8 281.8,303.8 281.07,300.92 					"/>
					<polygon class="st4" points="268.81,300.92 269.38,303.8 275.42,303.8 274.77,300.92 					"/>
					<polygon class="st4" points="190.48,303.8 191.32,300.92 184.84,300.92 183.96,303.8 					"/>
					<polygon class="st4" points="198.1,299.7 198.84,297.02 193.73,297.02 192.95,299.7 					"/>
					<polygon class="st4" points="191.68,299.7 192.46,297.02 186.04,297.02 185.22,299.7 					"/>
					<polygon class="st4" points="254.48,300.92 254.81,303.8 260.85,303.8 260.36,300.92 					"/>
					<polygon class="st4" points="218.28,299.7 218.81,297.02 212.96,297.02 212.35,299.7 					"/>
					<polygon class="st4" points="211.1,299.7 211.7,297.02 206.76,297.02 206.08,299.7 					"/>
					<polygon class="st4" points="204.83,299.7 205.5,297.02 200.11,297.02 199.36,299.7 					"/>
					<polygon class="st4" points="325.69,300.92 326.92,303.8 333.27,303.8 331.96,300.92 					"/>
					<polygon class="st4" points="161.68,299.7 162.83,297.02 156.66,297.02 155.44,299.7 					"/>
					<polygon class="st4" points="169.26,299.7 170.33,297.02 164.16,297.02 163.01,299.7 					"/>
					<polygon class="st4" points="183.94,299.7 184.76,297.02 178.94,297.02 177.98,299.7 					"/>
					<polygon class="st4" points="333.3,300.92 334.61,303.8 340.95,303.8 339.56,300.92 					"/>
					<polygon class="st4" points="176.68,299.7 177.65,297.02 171.65,297.02 170.57,299.7 					"/>
					<polygon class="st4" points="303.28,300.92 304.16,303.8 310.35,303.8 309.31,300.92 					"/>
					<polygon class="st4" points="217.66,309.12 217.1,312 223.36,312 223.86,309.12 					"/>
					<polygon class="st4" points="190.19,309.12 189.35,312 194.67,312 195.47,309.12 					"/>
					<polygon class="st4" points="210.24,309.12 209.59,312 215.85,312 216.42,309.12 					"/>
					<polygon class="st4" points="196.74,309.12 195.93,312 201.73,312 202.45,309.12 					"/>
					<polygon class="st4" points="203.71,309.12 202.99,312 208.34,312 208.99,309.12 					"/>
					<polygon class="st4" points="226.49,300.92 226,303.8 232.04,303.8 232.37,300.92 					"/>
					<polygon class="st4" points="225.46,299.7 225.92,297.02 220.06,297.02 219.53,299.7 					"/>
					<polygon class="st4" points="218.47,305.02 217.9,307.9 224.06,307.9 224.55,305.02 					"/>
					<polygon class="st4" points="318.08,300.92 319.23,303.8 325.59,303.8 324.36,300.92 					"/>
					<polygon class="st4" points="231.56,307.9 231.9,305.02 225.79,305.02 225.3,307.9 					"/>
					<polygon class="st4" points="310.61,300.92 311.64,303.8 317.92,303.8 316.76,300.92 					"/>
					<polygon class="st4" points="152.24,303.8 153.55,300.92 147.29,300.92 145.9,303.8 					"/>
					<polygon class="st4" points="290.91,312 290.11,309.12 284.39,309.12 285.12,312 					"/>
					<polygon class="st4" points="197.88,305.02 197.08,307.9 202.76,307.9 203.49,305.02 					"/>
					<polygon class="st4" points="301.63,299.7 300.81,297.02 294.39,297.02 295.17,299.7 					"/>
					<polygon class="st4" points="316.27,299.7 315.2,297.02 309.2,297.02 310.17,299.7 					"/>
					<polygon class="st4" points="308.87,299.7 307.91,297.02 302.09,297.02 302.91,299.7 					"/>
					<polygon class="st4" points="274.5,299.7 273.89,297.02 268.04,297.02 268.57,299.7 					"/>
					<polygon class="st4" points="267.32,299.7 266.79,297.02 260.93,297.02 261.39,299.7 					"/>
					<polygon class="st4" points="323.84,299.7 322.69,297.02 316.52,297.02 317.59,299.7 					"/>
					<polygon class="st4" points="287.49,299.7 286.74,297.02 281.35,297.02 282.02,299.7 					"/>
					<polygon class="st4" points="280.77,299.7 280.09,297.02 275.14,297.02 275.75,299.7 					"/>
					<polygon class="st4" points="283.86,312 283.14,309.12 277.86,309.12 278.51,312 					"/>
					<polygon class="st4" points="329.1,312 327.87,309.12 321.36,309.12 322.52,312 					"/>
					<polygon class="st4" points="313.3,312 312.26,309.12 305.79,309.12 306.67,312 					"/>
					<polygon class="st4" points="344.9,312 343.51,309.12 337.03,309.12 338.34,312 					"/>
					<polygon class="st4" points="337,312 335.69,309.12 329.2,309.12 330.43,312 					"/>
					<polygon class="st4" points="321.2,312 320.05,309.12 313.56,309.12 314.6,312 					"/>
					<polygon class="st4" points="277.26,312 276.61,309.12 270.43,309.12 271,312 					"/>
					<polygon class="st4" points="331.41,299.7 330.19,297.02 324.02,297.02 325.17,299.7 					"/>
					<polygon class="st4" points="342.3,303.8 348.15,303.8 346.52,300.92 340.91,300.92 					"/>
					<polygon class="st4" points="297.5,312 296.66,309.12 291.38,309.12 292.18,312 					"/>
					<polygon class="st4" points="338.97,299.7 337.68,297.02 331.53,297.02 332.75,299.7 					"/>
					<polygon class="st4" points="305.39,312 304.51,309.12 297.93,309.12 298.77,312 					"/>
					<polygon class="st4" points="345.83,299.7 344.31,297.02 339.03,297.02 340.33,299.7 					"/>
					<polygon class="st4" points="293.9,299.7 293.12,297.02 288,297.02 288.75,299.7 					"/>
					<polygon class="st4" points="254.54,312 254.2,309.12 247.88,309.12 248,312 					"/>
					<polygon class="st4" points="160.73,305.02 160.09,306.52 159.5,307.9 165.98,307.9 167.13,305.02 					"/>
					<polygon class="st4" points="261.55,307.9 261.06,305.02 254.95,305.02 255.29,307.9 					"/>
					<polygon class="st4" points="158.18,307.9 159.41,305.02 153.02,305.02 152.34,306.53 151.71,307.9 					"/>
					<polygon class="st4" points="212.08,300.92 211.43,303.8 217.47,303.8 218.04,300.92 					"/>
					<polygon class="st4" points="219.28,300.92 218.72,303.8 224.76,303.8 225.25,300.92 					"/>
					<polygon class="st4" points="183.59,305.02 182.71,307.9 189.28,307.9 190.12,305.02 					"/>
					<polygon class="st4" points="168.44,305.02 167.29,307.9 173.73,307.9 174.77,305.02 					"/>
					<polygon class="st4" points="191.39,305.02 190.55,307.9 195.81,307.9 196.61,305.02 					"/>
					<polygon class="st4" points="247.72,305.02 247.83,307.9 254.06,307.9 253.72,305.02 					"/>
					<polygon class="st4" points="176.06,305.02 175.02,307.9 181.43,307.9 182.31,305.02 					"/>
					<polygon class="st4" points="253.11,299.7 252.79,297.02 247.39,297.02 247.5,299.7 					"/>
					<polygon class="st4" points="269.75,312 269.19,309.12 262.99,309.12 263.48,312 					"/>
					<polygon class="st4" points="240.68,297.02 240.57,299.7 246.28,299.7 246.17,297.02 					"/>
					<polygon class="st4" points="240.52,300.92 240.4,303.8 246.45,303.8 246.33,300.92 					"/>
					<polygon class="st4" points="253.58,303.8 253.25,300.92 247.55,300.92 247.67,303.8 					"/>
					<polygon class="st4" points="260.15,299.7 259.69,297.02 254.02,297.02 254.33,299.7 					"/>
					<polygon class="st4" points="240.35,305.02 240.24,307.9 246.61,307.9 246.49,305.02 					"/>
					<polygon class="st4" points="240.19,309.12 240.07,312 246.78,312 246.66,309.12 					"/>
					<polygon class="st4" points="239.35,299.7 239.46,297.02 234.06,297.02 233.74,299.7 					"/>
					<polygon class="st4" points="226.7,299.7 232.52,299.7 232.83,297.02 227.16,297.02 					"/>
					<polygon class="st4" points="268.94,307.9 268.37,305.02 262.29,305.02 262.79,307.9 					"/>
					<polygon class="st4" points="211.16,305.02 210.51,307.9 216.66,307.9 217.23,305.02 					"/>
					<polygon class="st4" points="133.38,313.22 131.95,315.74 138.8,315.74 140.01,313.22 					"/>
					<polygon class="st4" points="296.3,307.9 295.46,305.02 290.23,305.02 291.04,307.9 					"/>
					<polygon class="st4" points="292.52,313.22 293.22,315.74 298.59,315.74 297.85,313.22 					"/>
					<polygon class="st4" points="282.83,307.9 282.1,305.02 276.94,305.02 277.59,307.9 					"/>
					<polygon class="st4" points="238.85,312 238.97,309.12 232.65,309.12 232.31,312 					"/>
					<polygon class="st4" points="315.04,313.22 315.94,315.74 322.7,315.74 321.69,313.22 					"/>
					<polygon class="st4" points="335.13,307.9 333.82,305.02 327.44,305.02 328.67,307.9 					"/>
					<polygon class="st4" points="323,313.22 324.01,315.74 330.7,315.74 329.62,313.22 					"/>
					<polygon class="st4" points="225.09,309.12 224.6,312 231.08,312 231.42,309.12 					"/>
					<polygon class="st4" points="135.69,309.12 134.06,312 140.6,312 141.99,309.12 					"/>
					<polygon class="st4" points="255.91,313.22 256.2,315.74 262.89,315.74 262.46,313.22 					"/>
					<polygon class="st4" points="157.23,313.22 156.15,315.74 162.84,315.74 163.85,313.22 					"/>
					<polygon class="st4" points="238.8,313.22 232.17,313.22 231.88,315.74 238.7,315.74 					"/>
					<polygon class="st4" points="327.35,307.9 326.12,305.02 319.72,305.02 320.87,307.9 					"/>
					<polygon class="st4" points="141.37,313.22 140.15,315.74 146.81,315.74 147.96,313.22 					"/>
					<polygon class="st4" points="269.62,305.02 270.19,307.9 276.34,307.9 275.69,305.02 					"/>
					<polygon class="st4" points="299.12,313.22 299.86,315.74 306.54,315.74 305.77,313.22 					"/>
					<polygon class="st4" points="271.24,313.22 271.74,315.74 278.1,315.74 277.53,313.22 					"/>
					<polygon class="st4" points="304.14,307.9 303.26,305.02 296.73,305.02 297.57,307.9 					"/>
					<polygon class="st4" points="311.82,307.9 310.79,305.02 304.53,305.02 305.42,307.9 					"/>
					<polygon class="st4" points="263.69,313.22 264.12,315.74 270.49,315.74 269.99,313.22 					"/>
					<polygon class="st4" points="307.04,313.22 307.81,315.74 314.65,315.74 313.74,313.22 					"/>
					<polygon class="st4" points="140.33,300.92 138.7,303.8 144.55,303.8 145.94,300.92 					"/>
					<polygon class="st4" points="338.89,313.22 340.04,315.74 346.7,315.74 345.48,313.22 					"/>
					<polygon class="st4" points="142.54,297.02 141.02,299.7 146.52,299.7 147.82,297.02 					"/>
					<polygon class="st4" points="319.56,307.9 318.41,305.02 312.08,305.02 313.12,307.9 					"/>
					<polygon class="st4" points="222.73,315.74 223.16,313.22 165.16,313.22 164.15,315.74 					"/>
					<polygon class="st4" points="278.78,313.22 279.35,315.74 284.8,315.74 284.17,313.22 					"/>
					<polygon class="st4" points="233.27,303.8 239.18,303.8 239.3,300.92 233.6,300.92 					"/>
					<polygon class="st4" points="351.15,309.12 344.86,309.12 348.05,315.74 354.9,315.74 					"/>
					<polygon class="st4" points="344.27,307.9 350.47,307.9 348.84,305.02 342.89,305.02 					"/>
					<polygon class="st4" points="342.92,307.9 341.53,305.02 335.16,305.02 336.47,307.9 					"/>
					<polygon class="st4" points="230.65,315.74 230.94,313.22 224.39,313.22 223.96,315.74 					"/>
					<polygon class="st4" points="240.02,313.22 239.92,315.74 254.97,315.74 254.68,313.22 					"/>
					<polygon class="st4" points="330.95,313.22 332.03,315.74 338.7,315.74 337.55,313.22 					"/>
					<polygon class="st4" points="289.77,307.9 288.97,305.02 283.36,305.02 284.09,307.9 					"/>
					<polygon class="st4" points="285.43,313.22 286.06,315.74 291.96,315.74 291.25,313.22 					"/>
					<polygon class="st4" points="138.01,305.02 136.38,307.9 142.57,307.9 143.96,305.02 					"/>
					<polygon class="st4" points="154.1,299.7 155.32,297.02 149.17,297.02 147.88,299.7 					"/>
					<polygon class="st4" points="149.3,313.22 148.15,315.74 154.82,315.74 155.9,313.22 					"/>
					<polygon class="st4" points="239.02,307.9 239.13,305.02 233.12,305.02 232.79,307.9 					"/>
					<polygon class="st4" points="261.76,309.12 255.43,309.12 255.76,312 262.25,312 					"/>
				</g>
				<path class="st4" d="M281.63,337.22h-76.42c-0.33,0-0.62-0.15-0.82-0.41c-0.19-0.26-0.25-0.59-0.15-0.9l4.86-15.79
					c0.13-0.43,0.52-0.71,0.97-0.71h66.7c0.45,0,0.84,0.29,0.97,0.71l4.86,15.79c0.1,0.31,0.04,0.64-0.15,0.9
					C282.25,337.07,281.96,337.22,281.63,337.22z M210.07,320.31c-0.05,0-0.09,0.03-0.11,0.08l-4.86,15.79
					c-0.01,0.04,0,0.08,0.02,0.1c0.02,0.02,0.04,0.04,0.09,0.04h76.42c0.05,0,0.07-0.02,0.09-0.04c0.01-0.02,0.03-0.05,0.02-0.1
					l-4.86-15.79c-0.01-0.04-0.06-0.08-0.1-0.08H210.07z"/>
			</g>
			<g>
				<g>
					<g>
						<polygon class="st6" points="280.53,176.4 197.53,189.5 277.34,229.43 360,217.13 						"/>
						<polygon class="st7" points="197.53,189.5 197.53,191.39 277.4,233.13 360,218.95 360,217.13 277.34,229.43 						"/>
						<path class="st7" d="M228.4,234.42l-1.27,8.44c0,0,34.08,27.37,82.15,13.91l0.74-6.59
							C267.53,257.29,240.79,243.52,228.4,234.42z"/>
						<g>
							<path class="st8" d="M329.6,278.86c-4.45-3.53-7.6-8.73-9.1-14.21c-0.11-0.41-0.65-0.26-0.72,0.09
								c-0.1-0.13-0.3-0.15-0.47-0.07c-0.08-0.28-0.54-0.41-0.71-0.07c-3.05,5.91-0.69,12.59,1.35,18.44
								c0.16,0.46,0.67,0.21,0.51-0.25c-1.6-4.58-3.31-9.7-2.33-14.53c-0.54,6.1,1.49,12.34,5.21,17.18
								c0.27,0.35,0.69-0.07,0.42-0.42c-3.38-4.39-5.12-9.97-4.94-15.51c0.1,2.18,0.44,4.36,1.14,6.41
								c1.07,3.15,2.86,6.16,4.64,8.95c0.26,0.41,0.68-0.01,0.42-0.42c-1.72-2.68-3.2-5.56-4.27-8.57
								c-0.46-1.29-0.76-2.64-0.95-4.01c1.03,4.44,3.17,8.6,6.25,11.99c0.32,0.36,0.75,0.04,0.42-0.32
								c-3.37-3.71-5.4-8.46-6.24-13.36c1.24,4.59,3.52,8.93,6.54,12.66c0.31,0.38,0.62-0.03,0.31-0.41
								c-2.95-3.64-4.89-7.89-6.11-12.37c1.64,4.62,3.76,9.07,7.52,12.36c0.37,0.32,0.77-0.05,0.4-0.37
								c-2.58-2.26-4.28-5.3-5.67-8.36c1.5,2.67,3.31,5.17,5.41,7.43c0.33,0.36,0.61-0.21,0.28-0.56c-1.85-1.99-3.26-4.18-4.63-6.51
								c1.41,1.89,3.05,3.62,4.92,5.09C329.57,279.43,329.98,279.16,329.6,278.86z"/>
							<path class="st8" d="M321.78,214.95c-1.73-2.07-4.07-3.43-6.47-4.6c-4.77-2.31-10.07-3.32-15.24-4.3
								c-7.31-1.38-14.78-2.66-20.85-7.27c-0.24-0.18-0.46-0.09-0.6,0.09c-0.01,0.01-0.02,0.02-0.03,0.04
								c0,0.01-0.01,0.01-0.01,0.02c-0.15,0.18-0.19,0.44,0.03,0.65c4.45,4.26,10.4,6.36,16.26,7.85c5.92,1.5,11.96,2.52,17.63,4.88
								c0.18,0.07,0.35,0.15,0.53,0.22c0.03,0.01,0.22,0.1,0.22,0.1c0.29,0.14,0.58,0.29,0.87,0.43c1.06,0.53,2.09,1.07,3.06,1.75
								c1.16,0.82,2.24,1.82,2.99,3.04c0.82,1.33,1.1,2.83,1.07,4.38c-0.03,1.61-0.33,3.22-0.59,4.8c-0.27,1.64-0.52,3.29-0.77,4.94
								c-0.52,3.41-1.01,6.81-1.38,10.24c-0.81,7.54-1.03,15.23,0.33,22.73c0.1,0.56,1.03,0.43,0.99-0.13
								c-0.53-7.11,0.05-14.24,1.05-21.29c0.5-3.51,1.1-7,1.71-10.49c0.58-3.28,1.34-6.58,1.6-9.89
								C324.43,220.13,323.74,217.29,321.78,214.95z"/>
							<path class="st9" d="M318.45,265.49c0.09-0.04,0.17-0.08,0.26-0.12c0.05-0.02,0.05-0.02-0.01,0
								c0.03-0.01,0.05-0.02,0.08-0.03c0.04-0.01,0.08-0.03,0.12-0.04c0.19-0.06,0.38-0.1,0.58-0.13c0.05-0.01,0.09-0.02,0.14-0.02
								c-0.13,0.01,0.02,0,0.05,0c0.1-0.01,0.19-0.01,0.29-0.01c0.1,0,0.19,0.01,0.29,0.02c0.05,0,0.09,0.01,0.14,0.02
								c0.03,0,0.05,0.01,0.08,0.01c-0.07-0.01-0.07-0.01-0.01,0c0.14,0.03,0.26,0.03,0.39-0.04c0.11-0.06,0.21-0.17,0.24-0.29
								c0.06-0.24-0.05-0.58-0.33-0.63c-0.95-0.18-1.91-0.07-2.78,0.36c-0.24,0.12-0.34,0.45-0.21,0.68
								C317.91,265.52,318.2,265.61,318.45,265.49L318.45,265.49z"/>
							<path class="st9" d="M318.35,264.5c0.09-0.04,0.17-0.08,0.26-0.12c0.05-0.02,0.05-0.02-0.01,0c0.03-0.01,0.05-0.02,0.08-0.03
								c0.04-0.01,0.08-0.03,0.12-0.04c0.19-0.06,0.38-0.1,0.58-0.13c0.05-0.01,0.09-0.02,0.14-0.02c-0.13,0.01,0.02,0,0.05,0
								c0.1-0.01,0.19-0.01,0.29-0.01c0.1,0,0.19,0.01,0.29,0.02c0.05,0,0.09,0.01,0.14,0.02c0.03,0,0.05,0.01,0.08,0.01
								c-0.07-0.01-0.07-0.01-0.01,0c0.14,0.03,0.26,0.03,0.39-0.04c0.11-0.06,0.21-0.17,0.24-0.29c0.06-0.24-0.05-0.58-0.33-0.63
								c-0.95-0.18-1.91-0.07-2.78,0.36c-0.24,0.12-0.34,0.45-0.21,0.68C317.81,264.54,318.1,264.63,318.35,264.5L318.35,264.5z"/>
						</g>
					</g>
					<g>
						<polygon class="st10" points="312.51,230.32 312.92,227.04 277.4,233.13 232.68,209.77 231.72,215.29 276.5,237.83 						"/>
						<path class="st6" d="M276.5,237.83l-44.78-22.55l-3.32,19.13c12.39,9.09,39.13,22.86,81.61,15.76l2.49-19.86L276.5,237.83z"/>
					</g>
				</g>
				<g>
					<g>
						<path class="st11" d="M222.22,263.79c1.98,5.34-2.28,11.84-9.51,14.53c-7.24,2.69-11.36-0.7-14.26-5.61
							c-4.23-7.17-0.15-11.04,7.08-13.73C212.76,256.3,220.24,258.45,222.22,263.79z"/>
						<path class="st12" d="M149.97,204.99c0,0,17.95,18.49,32.67,51.68c0,0,6.98,18.02,11.56,22.52c0,0-3.71-4.17,1.95-10.84
							c4.16-4.9,10.22-7.9,16.63-8.12c3.59-0.13,7.33,0.62,9.46,3.64c0,0-23.95-28.21-39.59-52.55c-6.25-9.72-9.21-17.76-10.51-23.9
							c0,0-1.18-1.39-3.53-2.55c-8.64-4.27-18.81,1.48-20.32,10.99c-0.14,0.89-0.23,1.83-0.25,2.84
							C148.04,198.7,147.92,202.92,149.97,204.99z"/>
						<path class="st13" d="M194.19,279.19c0,0,7.86,9.48,25.66-1.9c0,0,11.02-7.35,5.52-20.15c0,0-11.42-8.52-20.43-19.31
							c-9.01-10.79-20.15-25.49-29.39-44.93l-2.36-1.43c0,0,1.7,9.22,12.7,24.75c11,15.53,31.3,41.54,31.3,41.54l3.1,3.74
							c1.78,2.15,2.39,5.1,1.41,7.71c-1.4,3.72-5.52,8.12-17,8.79l-7.17-11.13C197.53,266.87,190.56,272.64,194.19,279.19z"/>
						<path class="st12" d="M211.58,245.05c0,0-20.63-21.51-35.09-55.56c0,0-2.61-4.15-4.27-6.06
							C172.22,183.44,184.79,222.29,211.58,245.05z"/>
					</g>
					<path class="st8" d="M173.64,238.81c4.34-7.83,13.72-13,22.64-12.56c3.18,0.16,3.17-3.79,0-3.95
						c-10.59-0.53-21.08,4.75-26.22,14.01C170.07,236.32,172.1,241.59,173.64,238.81L173.64,238.81z"/>
				</g>
			</g>
		</g>
		<g>
			<path class="st7" d="M141.68,253.2H101.2c-5.37,0-9.76-4.39-9.76-9.76v-21.08c0-5.37,4.39-9.76,9.76-9.76h40.48
				c5.37,0,9.76,4.39,9.76,9.76v21.08C151.44,248.81,147.05,253.2,141.68,253.2z"/>
			<polygon class="st5" points="115,232.9 115,225.46 121.44,229.18 127.88,232.9 121.44,236.62 115,240.33 			"/>
		</g>
		<g>
			<g>
				<g>
					<path class="st12" d="M109.72,163.66c0-12.4-10.05-22.44-22.44-22.44c-12.4,0-22.44,10.05-22.44,22.44
						c0,8.98,5.28,16.73,12.9,20.32v7.16h19.08v-7.16C104.44,180.39,109.72,172.64,109.72,163.66z"/>
					<path class="st8" d="M97.43,194.83H77.12c-1.02,0-1.85-0.83-1.85-1.85l0,0c0-1.02,0.83-1.85,1.85-1.85h20.31
						c1.02,0,1.85,0.83,1.85,1.85l0,0C99.28,194,98.45,194.83,97.43,194.83z"/>
					<path class="st8" d="M87.28,205.33L87.28,205.33c-4.1,0-7.42-3.32-7.42-7.42v-1.23H94.7v1.23
						C94.7,202.01,91.37,205.33,87.28,205.33z"/>
					<path class="st9" d="M97.43,198.53H77.12c-1.02,0-1.85-0.83-1.85-1.85l0,0c0-1.02,0.83-1.85,1.85-1.85h20.31
						c1.02,0,1.85,0.83,1.85,1.85l0,0C99.28,197.7,98.45,198.53,97.43,198.53z"/>
				</g>
				<path class="st8" d="M89.32,191.13h-1.05v-31.18c0-0.55-0.44-0.99-0.99-0.99c-0.55,0-0.99,0.44-0.99,0.99v31.18h-1.05v-31.18
					c0-1.13,0.92-2.04,2.04-2.04s2.04,0.92,2.04,2.04V191.13z"/>
			</g>
			<g>
				<path class="st4" d="M52,156l-0.62,3.21l9.38,1.8c0.13-1.1,0.32-2.17,0.57-3.22L52,156z"/>
				<path class="st4" d="M59.43,141.21l-1.98,2.61l7.48,5.66c0.6-0.92,1.25-1.79,1.96-2.62L59.43,141.21z"/>
				<path class="st4" d="M72.55,131.22l-2.92,1.47l4.21,8.34c0.94-0.55,1.91-1.04,2.92-1.48L72.55,131.22z"/>
				<path class="st4" d="M123.17,159.22l-0.62-3.21l-9.34,1.79c0.25,1.05,0.45,2.13,0.57,3.22L123.17,159.22z"/>
				<path class="st4" d="M117.1,143.82l-1.98-2.61l-7.46,5.65c0.7,0.83,1.36,1.71,1.96,2.62L117.1,143.82z"/>
				<path class="st4" d="M104.93,132.69l-2.92-1.47l-4.2,8.33c1.01,0.43,1.98,0.93,2.92,1.48L104.93,132.69z"/>
				<path class="st4" d="M88.95,137.45l-0.08-9.49l-3.27,0.03l0.08,9.46c0.53-0.03,1.06-0.05,1.6-0.05
					C87.84,137.39,88.4,137.42,88.95,137.45z"/>
			</g>
		</g>
		<g>
			<g>
				<g>
					<rect x="323.96" y="335.07" class="st8" width="94.85" height="18.7"/>
				</g>
				<g>
					<g>
						<rect x="329.29" y="335.07" class="st9" width="3.82" height="18.7"/>
						<rect x="335.03" y="335.07" class="st9" width="3.82" height="18.7"/>
					</g>
					<g>
						<rect x="403.91" y="335.07" class="st9" width="3.82" height="18.7"/>
						<rect x="409.65" y="335.07" class="st9" width="3.82" height="18.7"/>
					</g>
				</g>
			</g>
			<g>
				<g>
					<path class="st12" d="M427.93,324.65v-2.88c0-4.09-3.33-7.42-7.42-7.42h-84.54v17.71h84.54
						C424.61,332.07,427.93,328.74,427.93,324.65z"/>
					<path class="st7" d="M420.52,311.25h-85.09v1.56v1.56h85.09c4.09,0,7.42,3.33,7.42,7.42v2.88c0,4.09-3.33,7.42-7.42,7.42
						h-85.09v1.56v1.56h85.09c5.81,0,10.53-4.72,10.53-10.53v-2.88C431.05,315.97,426.32,311.25,420.52,311.25z"/>
				</g>
				<g>
					<rect x="335.98" y="318.33" class="st14" width="86.19" height="1.42"/>
					<rect x="335.98" y="322.59" class="st14" width="86.19" height="1.42"/>
					<rect x="335.98" y="326.86" class="st14" width="86.19" height="1.42"/>
				</g>
			</g>
			<g>
				<g>
					<path class="st12" d="M328.73,301.87v-2.59c0-3.68,3-6.68,6.68-6.68h76.12v15.94h-76.12
						C331.73,308.55,328.73,305.56,328.73,301.87z"/>
					<path class="st8" d="M335.41,289.8h76.62v1.4v1.4h-76.62c-3.68,0-6.68,3-6.68,6.68v2.59c0,3.68,3,6.68,6.68,6.68h76.62v1.4v1.4
						h-76.62c-5.23,0-9.48-4.25-9.48-9.48v-2.59C325.93,294.05,330.18,289.8,335.41,289.8z"/>
				</g>
				<g>
					
						<rect x="333.92" y="296.18" transform="matrix(-1 -1.224647e-16 1.224647e-16 -1 745.4507 593.626)" class="st14" width="77.61" height="1.28"/>
					
						<rect x="333.92" y="300.02" transform="matrix(-1 -1.224647e-16 1.224647e-16 -1 745.4507 601.3127)" class="st14" width="77.61" height="1.28"/>
					
						<rect x="333.92" y="303.86" transform="matrix(-1 -1.224647e-16 1.224647e-16 -1 745.4507 608.9992)" class="st14" width="77.61" height="1.28"/>
				</g>
			</g>
		</g>
		<g>
			<g>
				<g>
					<g>
						<path class="st8" d="M175.79,90.96L175.79,90.96c3.58,0,6.49,2.82,6.49,6.29v0.96c1.3,3.67,2.1,8.45,2.1,13.69
							s-0.79,10.02-2.1,13.69v0.96c0,3.47-2.9,6.29-6.49,6.29l0,0c-4.74,0-8.59-9.37-8.59-20.93
							C167.2,100.34,171.05,90.96,175.79,90.96z"/>
						<path class="st9" d="M170.12,112.16c0,7.07,0.55,12.81,1.22,12.81c0.68,0,1.22-5.73,1.22-12.81s-0.55-12.81-1.22-12.81
							C170.67,99.36,170.12,105.09,170.12,112.16z"/>
					</g>
					<g>
						<path class="st4" d="M191.36,102.41v0.84v17.83v0.84c-0.44,4.83-4.88,9.3-10.83,10.91v-11.75v-17.83V91.5
							C186.48,93.11,190.92,97.59,191.36,102.41z"/>
					</g>
					<path class="st7" d="M180.53,135.07L180.53,135.07c0.97,0,1.76-0.77,1.76-1.71v-42.4c0-0.94-0.79-1.71-1.76-1.71l0,0
						c-0.97,0-1.76,0.77-1.76,1.71v42.4C178.77,134.3,179.56,135.07,180.53,135.07z"/>
				</g>
				<g>
					<g>
						<path class="st8" d="M142.09,90.96L142.09,90.96c-3.58,0-6.49,2.82-6.49,6.29v0.96c-1.3,3.67-2.1,8.45-2.1,13.69
							s0.79,10.02,2.1,13.69v0.96c0,3.47,2.9,6.29,6.49,6.29l0,0c4.74,0,8.59-9.37,8.59-20.93
							C150.68,100.34,146.83,90.96,142.09,90.96z"/>
						<path class="st9" d="M147.76,112.16c0,7.07-0.55,12.81-1.22,12.81c-0.68,0-1.22-5.73-1.22-12.81s0.55-12.81,1.22-12.81
							C147.21,99.36,147.76,105.09,147.76,112.16z"/>
					</g>
					<g>
						<path class="st4" d="M126.52,102.41v0.84v17.83v0.84c0.44,4.83,4.88,9.3,10.83,10.91v-11.75v-17.83V91.5
							C131.4,93.11,126.96,97.59,126.52,102.41z"/>
					</g>
					<path class="st7" d="M137.35,135.07L137.35,135.07c-0.97,0-1.76-0.77-1.76-1.71v-42.4c0-0.94,0.79-1.71,1.76-1.71l0,0
						c0.97,0,1.76,0.77,1.76,1.71v42.4C139.11,134.3,138.32,135.07,137.35,135.07z"/>
				</g>
			</g>
			<g>
				<path class="st4" d="M180.7,65.16c-3.52-2.91-8.13-4.74-12.51-5.82c-4.49-1.1-9.19-1.39-13.78-0.85
					c-1.39,0.16-2.77,0.38-4.13,0.67c-0.93,0.2-1.96,0.35-2.83,0.76c-0.91,0.43-1.79,0.9-2.69,1.36c-2.43,1.22-4.85,2.45-7.28,3.67
					c-0.97,0.49-0.85,1.9,0,2.42c2.24,1.36,4.81,1.53,7.35,1.13c1.79-0.28,3.42-0.95,5.11-1.54c3.04-1.05,6.34-1.57,9.55-1.59
					c2.87-0.01,5.77,0.42,8.42,1.55c3.92,1.69,8.61,2.81,12.5,0.44C181.12,66.93,181.41,65.75,180.7,65.16z"/>
				<path class="st7" d="M159.55,56.93l0.01-0.03c-0.21,0-0.41,0.01-0.61,0.02c-0.2,0-0.41-0.02-0.61-0.02l0.01,0.03
					c-20.2,0.64-36.39,17.21-36.39,37.57v22.82c0,2.53,2.05,4.59,4.59,4.59v-22.5l-0.1-0.58c-1.55-9.12,0.43-18.62,6-26.01
					c2.6-3.45,6.12-6.7,10.89-9.05c0.06-0.03,0.11-0.06,0.17-0.08c9.71-4.74,21.18-4.74,30.89,0c0.06,0.03,0.11,0.06,0.17,0.08
					c4.8,2.36,8.33,5.64,10.94,9.11c5.53,7.38,7.49,16.86,5.95,25.95l-0.1,0.58v22.5c2.53,0,4.59-2.05,4.59-4.59V94.51
					C195.93,74.15,179.75,57.58,159.55,56.93z"/>
			</g>
		</g>
		<g>
			<g>
				<rect x="377.31" y="138.72" class="st5" width="59.67" height="86.29"/>
				<g>
					<rect x="383.75" y="151.37" class="st4" width="46.79" height="1.91"/>
					<rect x="383.75" y="160.14" class="st4" width="46.79" height="1.91"/>
					<rect x="383.75" y="168.91" class="st4" width="46.79" height="1.91"/>
					<rect x="383.75" y="177.68" class="st4" width="46.79" height="1.91"/>
					<rect x="383.75" y="186.44" class="st4" width="46.79" height="1.91"/>
					<rect x="383.75" y="195.21" class="st4" width="46.79" height="1.91"/>
				</g>
				<rect x="383.75" y="216.51" class="st12" width="46.79" height="0.53"/>
				<path class="st4" d="M390.14,208.22c2.39,0.4,4.82,0.52,7.23,0.31c2.23-0.19,4.6-0.57,6.68-1.43c1.48-0.61,3.1-2.29,2.06-3.98
					c-0.92-1.49-3.21-1.64-4.74-1.28c-1.78,0.42-3.36,1.59-4.44,3.04c-1.08,1.45-1.83,3.55-0.55,5.12c1.18,1.45,3.35,1.74,5.09,1.5
					c0.98-0.14,1.93-0.46,2.79-0.96c0.4-0.23,0.77-0.51,1.13-0.8c0.46-0.38,0.95-0.89,1.58-0.98c0.75-0.1,0.93,0.46,1.4,0.88
					c0.33,0.28,0.76,0.38,1.19,0.34c0.53-0.05,1.01-0.28,1.5-0.47c0.62-0.24,1.23-0.33,1.89-0.31c2.85,0.07,5.71,0.45,8.55,0.68
					c0.51,0.04,0.5-0.43,0-0.47c-2.11-0.17-4.23-0.66-6.34-0.83c-0.96-0.08-1.96-0.23-2.92-0.15c-0.91,0.07-1.64,0.55-2.51,0.73
					c-0.98,0.21-1.11-0.78-1.9-1.08c-0.7-0.27-1.46-0.04-2.06,0.36c-0.73,0.48-1.32,1.12-2.09,1.54c-0.87,0.47-1.85,0.75-2.84,0.81
					c-1.6,0.1-3.98-0.39-4.32-2.28c-0.31-1.73,1.13-3.51,2.37-4.53c1.28-1.05,3.01-1.74,4.68-1.43c0.8,0.15,1.83,0.52,2.03,1.41
					c0.23,1.04-0.69,1.88-1.53,2.29c-0.97,0.48-2.1,0.72-3.16,0.96c-1.17,0.26-2.36,0.45-3.55,0.55c-2.34,0.2-4.7,0.32-7.02-0.07
					C389.85,207.59,389.64,208.14,390.14,208.22L390.14,208.22z"/>
			</g>
			<g>
				<path class="st5" d="M456.92,191.1l-10.49-5.69l3.08-5.68c0.67-1.23,2.21-1.69,3.44-1.02l6.04,3.27
					c1.23,0.67,1.69,2.21,1.02,3.44L456.92,191.1z"/>
				
					<rect x="429.83" y="185.75" transform="matrix(0.8789 0.4769 -0.4769 0.8789 156.4956 -181.5116)" class="st7" width="11.93" height="63.53"/>
				
					<rect x="433.66" y="185.75" transform="matrix(0.8789 0.4769 -0.4769 0.8789 156.4907 -181.5082)" class="st6" width="4.26" height="63.53"/>
				
					<rect x="444.24" y="186.91" transform="matrix(0.8789 0.4769 -0.4769 0.8789 144.4959 -192.5915)" class="st8" width="14.77" height="2.86"/>
				<g>
					<polygon class="st5" points="425.89,248.28 415.4,242.59 414.34,252.1 418.49,254.36 					"/>
					<polygon class="st7" points="418.49,254.36 414.34,252.1 413.64,258.34 					"/>
				</g>
			</g>
		</g>
		<g>
			<g>
				<line class="st15" x1="81.8" y1="94.14" x2="92.53" y2="104.87"/>
				<line class="st15" x1="92.75" y1="94.14" x2="82.01" y2="104.87"/>
			</g>
			<g>
				<line class="st15" x1="442.87" y1="255.13" x2="453.6" y2="265.86"/>
				<line class="st15" x1="453.82" y1="255.13" x2="443.08" y2="265.86"/>
			</g>
			<g>
				<line class="st16" x1="51.51" y1="217.51" x2="61.02" y2="227.02"/>
				<line class="st16" x1="61.21" y1="217.51" x2="51.7" y2="227.02"/>
			</g>
			<path class="st15" d="M46.48,138.72c0,4.29-3.48,7.77-7.77,7.77s-7.77-3.48-7.77-7.77c0-4.29,3.48-7.77,7.77-7.77
				S46.48,134.43,46.48,138.72z"/>
			<circle class="st15" cx="350.47" cy="124.97" r="7.77"/>
			<path class="st16" d="M385.9,114.14c0,1.09-0.88,1.97-1.97,1.97c-1.09,0-1.97-0.88-1.97-1.97s0.88-1.97,1.97-1.97
				C385.02,112.16,385.9,113.05,385.9,114.14z"/>
			<path class="st16" d="M195.56,48.32c0,1.09-0.88,1.97-1.97,1.97s-1.97-0.88-1.97-1.97c0-1.09,0.88-1.97,1.97-1.97
				S195.56,47.23,195.56,48.32z"/>
		</g>
		<g>
			<path class="st7" d="M69.6,298.82v4.67c-6.27,0.35-11.27,5.55-11.27,11.91v3.97c0,6.52,5.25,11.82,11.73,11.94
				c2.36,12.78,13.55,22.47,27.01,22.47h0c15.18,0,27.48-12.3,27.48-27.48v-27.48H69.6z M62.19,319.37v-3.97
				c0-4.23,3.27-7.71,7.41-8.05v18.95c0,0.38,0.01,0.75,0.03,1.13C65.47,327.09,62.19,323.61,62.19,319.37z"/>
			<g>
				<path class="st5" d="M110.87,267.54c-3.5-1.8-8.09-0.95-10.9,1.8c-0.5-4.01-4.31-7.04-8.31-7.64c-4-0.6-8.05,0.8-11.56,2.81
					c-3.44,1.97-6.65,4.7-8.09,8.39c-1.44,3.69-0.63,8.45,2.63,10.7c1.33,0.91,3.02,1.17,4.6,0.9c0.21,1.26,0.71,2.45,1.52,3.45
					c2.72,3.31,8.34,3.64,11.43,0.67c2.34,2.07,5.94,2.6,8.78,1.28c0.62-0.29,1.19-0.66,1.71-1.1c-0.21,2.75-1.25,5.44-3.01,7.57
					c3.41-1.19,6.32-3.73,7.96-6.94c1.07-2.11,1.58-4.49,1.51-6.86c2.65-0.51,5.09-2.45,5.95-5.05
					C116.34,273.79,114.37,269.34,110.87,267.54z"/>
			</g>
		</g>
		<g>
			<path class="st7" d="M234.19,102.59L234.19,102.59c-0.15-0.01-0.3-0.02-0.44-0.02c-2.92,0-5.3,2.38-5.3,5.3
				c0,2.92,2.38,5.3,5.3,5.3c0.15,0,0.3-0.01,0.43-0.02c2.73-0.22,4.87-2.55,4.87-5.28C239.05,105.14,236.91,102.82,234.19,102.59z"
				/>
			<path class="st7" d="M252.77,107.88c0-0.92-0.36-1.78-1.01-2.43c-0.65-0.65-1.51-1.01-2.43-1.01h-1.96l-0.2-0.66
				c-0.26-0.87-0.61-1.71-1.04-2.51l-0.33-0.61l1.39-1.39c1.34-1.34,1.34-3.51,0-4.85c-0.65-0.65-1.51-1-2.43-1
				c-0.92,0-1.78,0.36-2.43,1l-1.39,1.39l-0.61-0.33c-0.8-0.43-1.64-0.78-2.51-1.04l-0.66-0.2v-1.96c0-1.63-1.16-3.04-2.75-3.36
				c-0.22-0.05-0.45-0.07-0.68-0.07c-0.92,0-1.78,0.36-2.43,1.01c-0.65,0.65-1.01,1.51-1.01,2.43v1.96l-0.66,0.2
				c-0.87,0.26-1.71,0.61-2.51,1.04l-0.61,0.33l-1.39-1.39c-1.34-1.34-3.51-1.34-4.85,0c-0.65,0.65-1,1.51-1,2.43
				c0,0.92,0.36,1.78,1,2.43l1.39,1.39l-0.33,0.61c-0.43,0.8-0.78,1.64-1.04,2.51l-0.2,0.66h-1.96c-1.89,0-3.43,1.54-3.43,3.43
				c0,0.92,0.36,1.78,1.01,2.43c0.65,0.65,1.51,1.01,2.43,1.01h1.96l0.2,0.66c0.26,0.87,0.61,1.71,1.04,2.51l0.33,0.61l-1.39,1.39
				c-1.34,1.34-1.34,3.51,0,4.85c0.65,0.65,1.51,1,2.43,1c0.92,0,1.78-0.36,2.43-1l1.39-1.39l0.61,0.33
				c0.8,0.43,1.64,0.78,2.51,1.04l0.66,0.2v1.96c0,1.89,1.54,3.43,3.43,3.43c0.22,0,0.45-0.02,0.67-0.07l0.1-0.02
				c0.63-0.14,1.2-0.46,1.65-0.92c0.65-0.65,1.01-1.51,1.01-2.43v-1.96l0.66-0.2c0.87-0.26,1.71-0.61,2.51-1.04l0.61-0.33l1.39,1.39
				c0.65,0.65,1.51,1,2.43,1c0.92,0,1.78-0.36,2.43-1c0.65-0.65,1-1.51,1-2.43c0-0.92-0.36-1.78-1-2.43l-1.39-1.39l0.33-0.61
				c0.43-0.8,0.78-1.64,1.04-2.51l0.2-0.66h1.96C251.23,111.31,252.77,109.77,252.77,107.88z M240.84,114.44
				c-1.65,1.78-3.88,2.87-6.3,3.07c-0.26,0.02-0.53,0.03-0.8,0.03c-5.33,0-9.67-4.34-9.67-9.67c0-5.33,4.34-9.67,9.67-9.67
				c0.27,0,0.55,0.01,0.81,0.03c2.4,0.2,4.64,1.29,6.29,3.07c1.66,1.79,2.57,4.12,2.57,6.57
				C243.41,110.32,242.5,112.65,240.84,114.44z"/>
		</g>
		<g>
			<path class="st7" d="M381.02,257.28L381.02,257.28c-0.04,0.09-0.08,0.18-0.12,0.27c-0.69,1.78,0.21,3.79,1.99,4.47
				c1.78,0.69,3.79-0.21,4.47-1.99c0.04-0.09,0.07-0.18,0.09-0.27c0.5-1.72-0.41-3.56-2.08-4.21
				C383.71,254.91,381.8,255.67,381.02,257.28z"/>
			<path class="st7" d="M388.6,247.19c-0.56-0.21-1.17-0.2-1.71,0.04c-0.55,0.24-0.97,0.68-1.18,1.24l-0.46,1.2l-0.45-0.03
				c-0.59-0.04-1.18-0.03-1.77,0.04l-0.45,0.06l-0.52-1.17c-0.5-1.13-1.83-1.64-2.96-1.14c-0.55,0.24-0.97,0.68-1.18,1.24
				c-0.21,0.56-0.2,1.17,0.04,1.71l0.52,1.17l-0.34,0.3c-0.45,0.39-0.86,0.82-1.22,1.28l-0.28,0.36l-1.2-0.46
				c-0.99-0.38-2.12-0.01-2.69,0.89c-0.08,0.13-0.15,0.26-0.2,0.4c-0.21,0.56-0.2,1.17,0.04,1.71c0.24,0.55,0.68,0.97,1.24,1.18
				l1.2,0.46l-0.03,0.45c-0.04,0.59-0.03,1.18,0.05,1.77l0.06,0.45l-1.17,0.52c-1.13,0.5-1.64,1.83-1.14,2.96
				c0.24,0.55,0.68,0.97,1.24,1.18c0.56,0.21,1.17,0.2,1.71-0.04l1.17-0.52l0.3,0.34c0.39,0.45,0.82,0.86,1.28,1.22l0.36,0.28
				l-0.46,1.2c-0.44,1.15,0.13,2.45,1.29,2.9c0.56,0.21,1.17,0.2,1.71-0.04c0.55-0.24,0.97-0.68,1.18-1.24l0.46-1.2l0.45,0.03
				c0.59,0.04,1.18,0.03,1.77-0.05l0.45-0.06l0.52,1.17c0.5,1.13,1.83,1.64,2.96,1.14c0.55-0.24,0.97-0.68,1.18-1.24
				c0.21-0.56,0.2-1.17-0.04-1.71l-0.52-1.17l0.34-0.3c0.45-0.39,0.86-0.82,1.22-1.28l0.28-0.36l1.2,0.46
				c1.15,0.44,2.45-0.13,2.9-1.29c0.05-0.14,0.09-0.28,0.12-0.42l0.01-0.07c0.06-0.41,0-0.84-0.17-1.22
				c-0.24-0.55-0.68-0.97-1.24-1.18l-1.2-0.46l0.03-0.45c0.04-0.59,0.03-1.18-0.04-1.77l-0.06-0.45l1.17-0.52
				c0.55-0.24,0.96-0.68,1.18-1.24c0.22-0.56,0.2-1.17-0.04-1.71c-0.24-0.55-0.68-0.97-1.24-1.18c-0.56-0.21-1.17-0.2-1.71,0.04
				l-1.17,0.52l-0.3-0.34c-0.39-0.45-0.82-0.86-1.28-1.22l-0.36-0.28l0.46-1.2C390.33,248.94,389.75,247.64,388.6,247.19z
				 M389.8,256c0.7,1.42,0.84,3.04,0.39,4.56c-0.05,0.16-0.1,0.33-0.17,0.5c-1.25,3.25-4.91,4.87-8.16,3.62
				c-3.25-1.25-4.87-4.91-3.62-8.16c0.06-0.17,0.14-0.33,0.21-0.49c0.68-1.42,1.87-2.52,3.34-3.11c1.48-0.59,3.11-0.6,4.6-0.03
				C387.89,253.47,389.1,254.57,389.8,256z"/>
		</g>
	</g>
</g>
</svg>
